<svg xmlns="http://www.w3.org/2000/svg" width="75px" viewBox="0 0 510.714 510.714">
  <g fill="#282828">
    <path d="M364.877 66.208V36.371c-2.478-.188-5.14-.282-7.994-.282l-11.991.282-1.998 2.286c-1.335 1.524-3.334 3.046-5.996 4.565-2.662 1.521-5.328 2.19-7.994 1.998l-9.709-.568h-83.653l-61.385-.288-32.836.288-5.424.855H98.782c-36.357 0-56.437-.477-60.242-1.427l-15.419-7.71L0 36.674V146.02c2.283 3.236 7.612 7.423 15.986 12.563 1.332 0 3.284-1.239 5.852-3.716 2.57-2.475 4.423-5.52 5.566-9.137 2.094-6.28 4.38-14.272 6.854-23.983 2.473-9.703 4.568-16.845 6.279-21.411 1.709-4.567 3.802-7.707 6.28-9.419 3.041-2.096 9.989-4.427 20.839-6.995 10.85-2.574 20.367-3.855 28.549-3.855 20.938 0 35.022.571 42.255 1.709 1.524.19 2.855.765 3.999 1.715.763.76 1.332 2.19 1.713 4.281.378 2.096.571 7.522.571 16.279 0 8.752-.049 18.512-.144 29.263-.094 10.756-.05 22.032.144 33.831l1.425 122.197c.38 45.87-.188 87.08-1.712 123.622-.572 6.659-1.713 11.987-3.427 15.988-3.806 2.279-18.937 7.043-45.395 14.271-11.042 3.045-18.559 7.706-22.557 13.989v2.567l.287 7.419c0 .767.193 3.237.572 7.426 4.187 0 10.85-.376 19.985-1.143 27.6-2.666 49.772-4.001 66.521-4.001 31.595 0 54.247.76 67.952 2.283 14.654 1.902 32.455 2.851 53.391 2.851 3.806 0 7.043-.093 9.705-.284.575-3.614.862-6.372.862-8.275 0-.951-.479-5.708-1.431-14.277-3.806-1.902-8.559-3.613-14.271-5.14-2.854-.76-6.946-1.902-12.275-3.429-5.326-1.526-9.518-2.766-12.562-3.717-3.045-.948-4.76-1.424-5.138-1.424-7.611-1.334-16.081-4.377-25.41-9.137-2.284-7.42-3.33-15.51-3.14-24.267l.288-41.973-.859-102.501v-94.771l-.288-43.396c-.378-7.422.383-20.363 2.286-38.831a127.714 127.714 0 0 1 19.13-1.427c8.186 0 18.747-.09 31.693-.284 12.942-.192 22.791-.288 29.554-.288 6.755 0 10.797.193 12.135.571 2.662.765 5.229 2.574 7.703 5.426.38.382.948 3.14 1.711 8.28.764 5.14 1.858 11.372 3.289 18.699 1.427 7.33 2.901 13.278 4.428 17.848 5.517 16.178 10.657 28.359 15.414 36.545 5.517-.572 11.991-2.288 19.417-5.141.76-3.617 1.136-8.47 1.136-14.561l.284-16.562-.284-28.544c-.189-25.033-.285-37.546-.285-37.546zM497.924 401.534h-22.843v-292.36h22.843c6.283 0 10.28-1.759 11.991-5.282 1.715-3.521.667-7.754-3.139-12.707L470.8 44.937c-3.806-4.949-8.474-7.423-13.99-7.423s-10.181 2.474-13.986 7.423l-35.977 46.249c-3.799 4.952-4.846 9.186-3.142 12.707 1.704 3.523 5.708 5.282 11.991 5.282h22.846v292.36h-22.846c-6.283 0-10.28 1.76-11.991 5.288-1.711 3.518-.664 7.754 3.142 12.702l35.977 46.251c3.806 4.948 8.471 7.419 13.986 7.419 5.517 0 10.185-2.471 13.99-7.419l35.977-46.251c3.803-4.948 4.85-9.185 3.139-12.702-1.711-3.529-5.708-5.289-11.992-5.289z"/>
  </g>
</svg>