<svg xmlns="http://www.w3.org/2000/svg" viewBox="0 0 316.89 316.89" width="90px">
  <circle cx="158.44" cy="158.44" r="158.44" fill="#fff"/>
  <g fill="#293130">
    <path d="M70.74 137.82a37.92 37.92 0 0 0 .79 8.28 31.53 31.53 0 0 0 1.85 5.9 23.78 23.78 0 0 0 2 3.79c.65.95 1.15 1.7 1.5 2.29q-9.87 0-15.5-5t-5.64-15.42a32.52 32.52 0 0 1 4.49-16.56 44.87 44.87 0 0 1 12.16-13.48 61.53 61.53 0 0 1 18-9.07 70.6 70.6 0 0 1 21.94-3.35 57.27 57.27 0 0 1 18.06 2.55 36.44 36.44 0 0 1 12.69 7 28.5 28.5 0 0 1 7.49 10 28.73 28.73 0 0 1 2.47 11.63 28 28 0 0 1-3.52 13.3 31.44 31.44 0 0 1-10.22 11.19q13.57 1.41 21.76 10.75t8.19 26.07a79.27 79.27 0 0 1-1.23 13 49.91 49.91 0 0 1-4.49 13.91 32.23 32.23 0 0 1-9.07 11.19q-5.81 4.57-14.8 4.58a27.86 27.86 0 0 1-7.4-1 21 21 0 0 1-6.25-2.82 13.43 13.43 0 0 1-4.32-4.76 13.56 13.56 0 0 1-1.59-6.6q0-1.05.18-2.91a17.3 17.3 0 0 1 .53-3.08 13.1 13.1 0 0 0 6.17 5.37 18.3 18.3 0 0 0 6.87 1.5 10.92 10.92 0 0 0 7.31-2.47 16.12 16.12 0 0 0 4.49-6.34 34.54 34.54 0 0 0 2.2-8.54 70.34 70.34 0 0 0 .62-9.25q0-16.74-6.4-24.14t-17.79-7.4c-1.4 0-3.29.06-5.39.17s-3.27.3-6.27.53v69.31h-19V101.99l19-.47v51.42h2.72c3.26 0 6.33-1.48 9.19-3.07a26.59 26.59 0 0 0 7.43-6.6 31.26 31.26 0 0 0 4.9-8.71 26.66 26.66 0 0 0 1.75-9.34c0-6.93-2.35-12.64-7-17s-11.69-6.63-21-6.63a50.39 50.39 0 0 0-14.8 2.19 37.34 37.34 0 0 0-12.78 6.69 32.91 32.91 0 0 0-8.9 11.36 36.2 36.2 0 0 0-3.39 15.99z"/>
    <path d="M242.44 109.14a71.33 71.33 0 0 1-13.13-1.33c-4.87-.88-9.72-2-14.72-3.23v124.36h-19V101.55c-2-.25-3.74-.61-4.85-.61h-3.44c-9.86 0-17.42 2-22.64 5.91s-7.84 10.91-7.84 21c0 7.59.8 13.41 2.4 17.39a35.25 35.25 0 0 0 4.88 9 23.18 23.18 0 0 1-8.22-1.42 16.29 16.29 0 0 1-6.62-4.65 22.64 22.64 0 0 1-4.42-8.44 45.23 45.23 0 0 1-1.59-13 40.72 40.72 0 0 1 2.82-15 33.42 33.42 0 0 1 9.1-12.81 46.88 46.88 0 0 1 16.25-9q10-3.41 24.46-3.41a112.56 112.56 0 0 1 12.8.67q5.74.67 10.76 1.52t10 1.52a77.26 77.26 0 0 0 10.39.67 52.76 52.76 0 0 0 12.42-1.24 48.25 48.25 0 0 0 8.37-2.75 42.09 42.09 0 0 1 .53 6.45q-.07 15.79-18.71 15.79z"/>
  </g>
</svg>