<svg xmlns="http://www.w3.org/2000/svg" viewBox="0 0 299.73 254.53">
  <g fill="#4ab0ef">
    <path d="M242.93 141.54h-11.3a5.45 5.45 0 0 0-5.65 5.65v56.49a28.32 28.32 0 0 1-28.25 28.24H50.84a28.32 28.32 0 0 1-28.25-28.24V56.8a28.33 28.33 0 0 1 28.25-28.25h124.29a5.44 5.44 0 0 0 5.65-5.65V11.6a5.43 5.43 0 0 0-5.65-5.65H50.84A50.93 50.93 0 0 0 0 56.79v146.9a50.94 50.94 0 0 0 50.85 50.85h146.88a50.94 50.94 0 0 0 50.85-50.85v-56.5a5.45 5.45 0 0 0-5.65-5.65z"/>
    <path d="M296.94 2.78A9 9 0 0 0 290.35 0h-74.98a9.32 9.32 0 0 0-6.59 16l25.78 25.78-95.5 95.5a4.61 4.61 0 0 0 0 6.74l16.7 16.7a4.61 4.61 0 0 0 6.74 0l95.5-95.5L283.78 91a9.38 9.38 0 0 0 16-6.59v-75a9 9 0 0 0-2.84-6.63z"/>
  </g>
</svg>